<?xml version="1.0" encoding="UTF-8" standalone="no"?>
<!DOCTYPE svg PUBLIC "-//W3C//DTD SVG 1.1//EN"
 "http://www.w3.org/Graphics/SVG/1.1/DTD/svg11.dtd">
<!-- Generated by graphviz version 12.2.1 (20241206.2353)
 -->
<!-- Title: G Pages: 1 -->
<svg width="224pt" height="175pt"
 viewBox="0.00 0.00 223.50 175.44" xmlns="http://www.w3.org/2000/svg" xmlns:xlink="http://www.w3.org/1999/xlink">
<g id="graph0" class="graph" transform="scale(1 1) rotate(0) translate(4 171.44)">
<title>G</title>
<polygon fill="black" stroke="none" points="-4,4 -4,-171.44 219.5,-171.44 219.5,4 -4,4"/>
<text text-anchor="middle" x="107.75" y="-150.14" font-family="Times,serif" font-size="14.00">Coloring for 2 colors and 4 numbers</text>
<!-- 1 -->
<g id="node1" class="node">
<title>1</title>
<ellipse fill="none" stroke="#fc17da" stroke-width="4" cx="107.75" cy="-17.32" rx="17.32" ry="17.32"/>
<text text-anchor="middle" x="107.75" y="-12.27" font-family="Times,serif" font-size="14.00" fill="white">1</text>
</g>
<!-- 2 -->
<g id="node2" class="node">
<title>2</title>
<ellipse fill="none" stroke="#ffff00" stroke-width="4" cx="53.61" cy="-71.47" rx="17.32" ry="17.32"/>
<text text-anchor="middle" x="53.61" y="-66.42" font-family="Times,serif" font-size="14.00" fill="white">2</text>
</g>
<!-- 1&#45;&#45;2 -->
<g id="edge1" class="edge">
<title>1&#45;&#45;2</title>
<path fill="none" stroke="white" d="M94.09,-30.99C85.82,-39.26 75.31,-49.76 67.08,-58"/>
</g>
<!-- 3 -->
<g id="node3" class="node">
<title>3</title>
<ellipse fill="none" stroke="#ffff00" stroke-width="4" cx="107.75" cy="-125.61" rx="17.32" ry="17.32"/>
<text text-anchor="middle" x="107.75" y="-120.56" font-family="Times,serif" font-size="14.00" fill="white">3</text>
</g>
<!-- 2&#45;&#45;3 -->
<g id="edge2" class="edge">
<title>2&#45;&#45;3</title>
<path fill="none" stroke="white" d="M67.27,-85.13C75.54,-93.4 86.04,-103.9 94.28,-112.14"/>
</g>
<!-- 4 -->
<g id="node4" class="node">
<title>4</title>
<ellipse fill="none" stroke="#fc17da" stroke-width="4" cx="161.89" cy="-71.47" rx="17.32" ry="17.32"/>
<text text-anchor="middle" x="161.89" y="-66.42" font-family="Times,serif" font-size="14.00" fill="white">4</text>
</g>
<!-- 3&#45;&#45;4 -->
<g id="edge3" class="edge">
<title>3&#45;&#45;4</title>
<path fill="none" stroke="white" d="M121.41,-111.95C129.68,-103.68 140.19,-93.17 148.42,-84.94"/>
</g>
<!-- 4&#45;&#45;1 -->
<g id="edge4" class="edge">
<title>4&#45;&#45;1</title>
<path fill="none" stroke="white" d="M148.23,-57.8C139.96,-49.53 129.46,-39.03 121.22,-30.79"/>
</g>
</g>
</svg>
