<?xml version="1.0" encoding="UTF-8" standalone="no"?>
<!DOCTYPE svg PUBLIC "-//W3C//DTD SVG 1.1//EN"
 "http://www.w3.org/Graphics/SVG/1.1/DTD/svg11.dtd">
<!-- Generated by graphviz version 12.2.1 (20241206.2353)
 -->
<!-- Title: G Pages: 1 -->
<svg width="224pt" height="196pt"
 viewBox="0.00 0.00 223.50 195.88" xmlns="http://www.w3.org/2000/svg" xmlns:xlink="http://www.w3.org/1999/xlink">
<g id="graph0" class="graph" transform="scale(1 1) rotate(0) translate(4 191.88)">
<title>G</title>
<polygon fill="black" stroke="none" points="-4,4 -4,-191.88 219.5,-191.88 219.5,4 -4,4"/>
<text text-anchor="middle" x="107.75" y="-170.58" font-family="Times,serif" font-size="14.00">Coloring for 3 colors and 5 numbers</text>
<!-- 1 -->
<g id="node1" class="node">
<title>1</title>
<ellipse fill="none" stroke="#fc17da" stroke-width="4" cx="122.2" cy="-17.32" rx="17.32" ry="17.32"/>
<text text-anchor="middle" x="122.2" y="-12.27" font-family="Times,serif" font-size="14.00" fill="white">1</text>
</g>
<!-- 2 -->
<g id="node2" class="node">
<title>2</title>
<ellipse fill="none" stroke="#ffff00" stroke-width="4" cx="46.53" cy="-41.91" rx="17.32" ry="17.32"/>
<text text-anchor="middle" x="46.53" y="-36.86" font-family="Times,serif" font-size="14.00" fill="white">2</text>
</g>
<!-- 1&#45;&#45;2 -->
<g id="edge1" class="edge">
<title>1&#45;&#45;2</title>
<path fill="none" stroke="white" d="M103.88,-23.28C91.99,-27.14 76.55,-32.16 64.68,-36.01"/>
</g>
<!-- 3 -->
<g id="node3" class="node">
<title>3</title>
<ellipse fill="none" stroke="#ffff00" stroke-width="4" cx="46.53" cy="-121.47" rx="17.32" ry="17.32"/>
<text text-anchor="middle" x="46.53" y="-116.42" font-family="Times,serif" font-size="14.00" fill="white">3</text>
</g>
<!-- 2&#45;&#45;3 -->
<g id="edge2" class="edge">
<title>2&#45;&#45;3</title>
<path fill="none" stroke="white" d="M46.53,-61.17C46.53,-73.68 46.53,-89.92 46.53,-102.39"/>
</g>
<!-- 4 -->
<g id="node4" class="node">
<title>4</title>
<ellipse fill="none" stroke="#fc17da" stroke-width="4" cx="122.2" cy="-146.06" rx="17.32" ry="17.32"/>
<text text-anchor="middle" x="122.2" y="-141.01" font-family="Times,serif" font-size="14.00" fill="white">4</text>
</g>
<!-- 3&#45;&#45;4 -->
<g id="edge3" class="edge">
<title>3&#45;&#45;4</title>
<path fill="none" stroke="white" d="M64.85,-127.42C76.75,-131.29 92.19,-136.31 104.05,-140.16"/>
</g>
<!-- 5 -->
<g id="node5" class="node">
<title>5</title>
<ellipse fill="none" stroke="#38befc" stroke-width="4" cx="168.97" cy="-81.69" rx="17.32" ry="17.32"/>
<text text-anchor="middle" x="168.97" y="-76.64" font-family="Times,serif" font-size="14.00" fill="white">5</text>
</g>
<!-- 4&#45;&#45;5 -->
<g id="edge4" class="edge">
<title>4&#45;&#45;5</title>
<path fill="none" stroke="white" d="M133.52,-130.48C140.87,-120.36 150.42,-107.22 157.75,-97.13"/>
</g>
<!-- 5&#45;&#45;1 -->
<g id="edge5" class="edge">
<title>5&#45;&#45;1</title>
<path fill="none" stroke="white" d="M157.65,-66.11C150.29,-55.99 140.75,-42.85 133.42,-32.76"/>
</g>
</g>
</svg>
