<?xml version="1.0" encoding="UTF-8" standalone="no"?>
<!DOCTYPE svg PUBLIC "-//W3C//DTD SVG 1.1//EN"
 "http://www.w3.org/Graphics/SVG/1.1/DTD/svg11.dtd">
<!-- Generated by graphviz version 12.2.1 (20241206.2353)
 -->
<!-- Title: G Pages: 1 -->
<svg width="224pt" height="208pt"
 viewBox="0.00 0.00 223.50 207.82" xmlns="http://www.w3.org/2000/svg" xmlns:xlink="http://www.w3.org/1999/xlink">
<g id="graph0" class="graph" transform="scale(1 1) rotate(0) translate(4 203.82)">
<title>G</title>
<polygon fill="black" stroke="none" points="-4,4 -4,-203.82 219.5,-203.82 219.5,4 -4,4"/>
<text text-anchor="middle" x="107.75" y="-182.52" font-family="Times,serif" font-size="14.00">Coloring for 3 colors and 6 numbers</text>
<!-- 1 -->
<g id="node1" class="node">
<title>1</title>
<ellipse fill="none" stroke="#fc17da" stroke-width="4" cx="148.36" cy="-17.32" rx="17.32" ry="17.32"/>
<text text-anchor="middle" x="148.36" y="-12.27" font-family="Times,serif" font-size="14.00" fill="white">1</text>
</g>
<!-- 2 -->
<g id="node2" class="node">
<title>2</title>
<ellipse fill="none" stroke="#ffff00" stroke-width="4" cx="67.14" cy="-17.32" rx="17.32" ry="17.32"/>
<text text-anchor="middle" x="67.14" y="-12.27" font-family="Times,serif" font-size="14.00" fill="white">2</text>
</g>
<!-- 1&#45;&#45;2 -->
<g id="edge1" class="edge">
<title>1&#45;&#45;2</title>
<path fill="none" stroke="white" d="M129.11,-17.32C116.16,-17.32 99.17,-17.32 86.25,-17.32"/>
</g>
<!-- 3 -->
<g id="node3" class="node">
<title>3</title>
<ellipse fill="none" stroke="#ffff00" stroke-width="4" cx="26.53" cy="-87.66" rx="17.32" ry="17.32"/>
<text text-anchor="middle" x="26.53" y="-82.61" font-family="Times,serif" font-size="14.00" fill="white">3</text>
</g>
<!-- 2&#45;&#45;3 -->
<g id="edge2" class="edge">
<title>2&#45;&#45;3</title>
<path fill="none" stroke="white" d="M57.52,-33.99C51.05,-45.2 42.55,-59.92 36.09,-71.11"/>
</g>
<!-- 4 -->
<g id="node4" class="node">
<title>4</title>
<ellipse fill="none" stroke="#fc17da" stroke-width="4" cx="67.14" cy="-157.99" rx="17.32" ry="17.32"/>
<text text-anchor="middle" x="67.14" y="-152.94" font-family="Times,serif" font-size="14.00" fill="white">4</text>
</g>
<!-- 3&#45;&#45;4 -->
<g id="edge3" class="edge">
<title>3&#45;&#45;4</title>
<path fill="none" stroke="white" d="M36.16,-104.33C42.63,-115.54 51.13,-130.26 57.59,-141.44"/>
</g>
<!-- 5 -->
<g id="node5" class="node">
<title>5</title>
<ellipse fill="none" stroke="#38befc" stroke-width="4" cx="148.36" cy="-157.99" rx="17.32" ry="17.32"/>
<text text-anchor="middle" x="148.36" y="-152.94" font-family="Times,serif" font-size="14.00" fill="white">5</text>
</g>
<!-- 4&#45;&#45;5 -->
<g id="edge4" class="edge">
<title>4&#45;&#45;5</title>
<path fill="none" stroke="white" d="M86.39,-157.99C99.34,-157.99 116.33,-157.99 129.25,-157.99"/>
</g>
<!-- 6 -->
<g id="node6" class="node">
<title>6</title>
<ellipse fill="none" stroke="#fc17da" stroke-width="4" cx="188.97" cy="-87.66" rx="17.32" ry="17.32"/>
<text text-anchor="middle" x="188.97" y="-82.61" font-family="Times,serif" font-size="14.00" fill="white">6</text>
</g>
<!-- 5&#45;&#45;6 -->
<g id="edge5" class="edge">
<title>5&#45;&#45;6</title>
<path fill="none" stroke="white" d="M157.98,-141.32C164.45,-130.11 172.95,-115.39 179.41,-104.21"/>
</g>
<!-- 6&#45;&#45;1 -->
<g id="edge6" class="edge">
<title>6&#45;&#45;1</title>
<path fill="none" stroke="white" d="M179.34,-70.99C172.87,-59.78 164.37,-45.06 157.91,-33.87"/>
</g>
</g>
</svg>
