<?xml version="1.0" encoding="UTF-8" standalone="no"?>
<!DOCTYPE svg PUBLIC "-//W3C//DTD SVG 1.1//EN"
 "http://www.w3.org/Graphics/SVG/1.1/DTD/svg11.dtd">
<!-- Generated by graphviz version 12.2.1 (20241206.2353)
 -->
<!-- Title: G Pages: 1 -->
<svg width="224pt" height="252pt"
 viewBox="0.00 0.00 223.50 251.90" xmlns="http://www.w3.org/2000/svg" xmlns:xlink="http://www.w3.org/1999/xlink">
<g id="graph0" class="graph" transform="scale(1 1) rotate(0) translate(4 247.9)">
<title>G</title>
<polygon fill="black" stroke="none" points="-4,4 -4,-247.9 219.5,-247.9 219.5,4 -4,4"/>
<text text-anchor="middle" x="107.75" y="-226.6" font-family="Times,serif" font-size="14.00">Coloring for 3 colors and 7 numbers</text>
<!-- 1 -->
<g id="node1" class="node">
<title>1</title>
<ellipse fill="none" stroke="#fc17da" stroke-width="4" cx="162.13" cy="-35.62" rx="17.32" ry="17.32"/>
<text text-anchor="middle" x="162.13" y="-30.57" font-family="Times,serif" font-size="14.00" fill="white">1</text>
</g>
<!-- 2 -->
<g id="node2" class="node">
<title>2</title>
<ellipse fill="none" stroke="#ffff00" stroke-width="4" cx="81.97" cy="-17.32" rx="17.32" ry="17.32"/>
<text text-anchor="middle" x="81.97" y="-12.27" font-family="Times,serif" font-size="14.00" fill="white">2</text>
</g>
<!-- 1&#45;&#45;2 -->
<g id="edge1" class="edge">
<title>1&#45;&#45;2</title>
<path fill="none" stroke="white" d="M143.54,-31.38C130.69,-28.44 113.64,-24.55 100.74,-21.61"/>
</g>
<!-- 3 -->
<g id="node3" class="node">
<title>3</title>
<ellipse fill="none" stroke="#fc17da" stroke-width="4" cx="17.69" cy="-68.59" rx="17.32" ry="17.32"/>
<text text-anchor="middle" x="17.69" y="-63.54" font-family="Times,serif" font-size="14.00" fill="white">3</text>
</g>
<!-- 2&#45;&#45;3 -->
<g id="edge2" class="edge">
<title>2&#45;&#45;3</title>
<path fill="none" stroke="white" d="M67.06,-29.21C56.68,-37.5 42.89,-48.5 32.52,-56.76"/>
</g>
<!-- 4 -->
<g id="node4" class="node">
<title>4</title>
<ellipse fill="none" stroke="#38befc" stroke-width="4" cx="17.69" cy="-150.81" rx="17.32" ry="17.32"/>
<text text-anchor="middle" x="17.69" y="-145.76" font-family="Times,serif" font-size="14.00" fill="white">4</text>
</g>
<!-- 3&#45;&#45;4 -->
<g id="edge3" class="edge">
<title>3&#45;&#45;4</title>
<path fill="none" stroke="white" d="M17.69,-87.66C17.69,-100.85 17.69,-118.33 17.69,-131.56"/>
</g>
<!-- 5 -->
<g id="node5" class="node">
<title>5</title>
<ellipse fill="none" stroke="#38befc" stroke-width="4" cx="81.97" cy="-202.07" rx="17.32" ry="17.32"/>
<text text-anchor="middle" x="81.97" y="-197.02" font-family="Times,serif" font-size="14.00" fill="white">5</text>
</g>
<!-- 4&#45;&#45;5 -->
<g id="edge4" class="edge">
<title>4&#45;&#45;5</title>
<path fill="none" stroke="white" d="M32.6,-162.7C42.99,-170.98 56.78,-181.98 67.15,-190.25"/>
</g>
<!-- 6 -->
<g id="node6" class="node">
<title>6</title>
<ellipse fill="none" stroke="#ffff00" stroke-width="4" cx="162.13" cy="-183.78" rx="17.32" ry="17.32"/>
<text text-anchor="middle" x="162.13" y="-178.73" font-family="Times,serif" font-size="14.00" fill="white">6</text>
</g>
<!-- 5&#45;&#45;6 -->
<g id="edge5" class="edge">
<title>5&#45;&#45;6</title>
<path fill="none" stroke="white" d="M100.57,-197.83C113.42,-194.9 130.47,-191.01 143.37,-188.06"/>
</g>
<!-- 7 -->
<g id="node7" class="node">
<title>7</title>
<ellipse fill="none" stroke="#ffff00" stroke-width="4" cx="197.81" cy="-109.7" rx="17.32" ry="17.32"/>
<text text-anchor="middle" x="197.81" y="-104.65" font-family="Times,serif" font-size="14.00" fill="white">7</text>
</g>
<!-- 6&#45;&#45;7 -->
<g id="edge6" class="edge">
<title>6&#45;&#45;7</title>
<path fill="none" stroke="white" d="M170.41,-166.6C176.13,-154.72 183.72,-138.96 189.46,-127.04"/>
</g>
<!-- 7&#45;&#45;1 -->
<g id="edge7" class="edge">
<title>7&#45;&#45;1</title>
<path fill="none" stroke="white" d="M189.54,-92.52C183.81,-80.64 176.23,-64.88 170.49,-52.97"/>
</g>
</g>
</svg>
