<?xml version="1.0" encoding="UTF-8" standalone="no"?>
<!DOCTYPE svg PUBLIC "-//W3C//DTD SVG 1.1//EN"
 "http://www.w3.org/Graphics/SVG/1.1/DTD/svg11.dtd">
<!-- Generated by graphviz version 12.2.1 (20241206.2353)
 -->
<!-- Title: G Pages: 1 -->
<svg width="259pt" height="284pt"
 viewBox="0.00 0.00 259.22 283.72" xmlns="http://www.w3.org/2000/svg" xmlns:xlink="http://www.w3.org/1999/xlink">
<g id="graph0" class="graph" transform="scale(1 1) rotate(0) translate(4 279.72)">
<title>G</title>
<polygon fill="black" stroke="none" points="-4,4 -4,-279.72 255.22,-279.72 255.22,4 -4,4"/>
<text text-anchor="middle" x="125.61" y="-258.42" font-family="Times,serif" font-size="14.00">Coloring for 3 colors and 8 numbers</text>
<!-- 1 -->
<g id="node1" class="node">
<title>1</title>
<ellipse fill="none" stroke="#fc17da" stroke-width="4" cx="202.18" cy="-49.04" rx="17.32" ry="17.32"/>
<text text-anchor="middle" x="202.18" y="-43.99" font-family="Times,serif" font-size="14.00" fill="white">1</text>
</g>
<!-- 2 -->
<g id="node2" class="node">
<title>2</title>
<ellipse fill="none" stroke="#ffff00" stroke-width="4" cx="125.61" cy="-17.32" rx="17.32" ry="17.32"/>
<text text-anchor="middle" x="125.61" y="-12.27" font-family="Times,serif" font-size="14.00" fill="white">2</text>
</g>
<!-- 1&#45;&#45;2 -->
<g id="edge1" class="edge">
<title>1&#45;&#45;2</title>
<path fill="none" stroke="white" d="M184.42,-41.68C172.05,-36.56 155.62,-29.76 143.27,-24.64"/>
</g>
<!-- 3 -->
<g id="node3" class="node">
<title>3</title>
<ellipse fill="none" stroke="#ffff00" stroke-width="4" cx="49.04" cy="-49.04" rx="17.32" ry="17.32"/>
<text text-anchor="middle" x="49.04" y="-43.99" font-family="Times,serif" font-size="14.00" fill="white">3</text>
</g>
<!-- 2&#45;&#45;3 -->
<g id="edge2" class="edge">
<title>2&#45;&#45;3</title>
<path fill="none" stroke="white" d="M107.85,-24.68C95.48,-29.8 79.05,-36.61 66.7,-41.72"/>
</g>
<!-- 4 -->
<g id="node4" class="node">
<title>4</title>
<ellipse fill="none" stroke="#fc17da" stroke-width="4" cx="17.32" cy="-125.61" rx="17.32" ry="17.32"/>
<text text-anchor="middle" x="17.32" y="-120.56" font-family="Times,serif" font-size="14.00" fill="white">4</text>
</g>
<!-- 3&#45;&#45;4 -->
<g id="edge3" class="edge">
<title>3&#45;&#45;4</title>
<path fill="none" stroke="white" d="M41.68,-66.8C36.56,-79.17 29.76,-95.6 24.64,-107.95"/>
</g>
<!-- 5 -->
<g id="node5" class="node">
<title>5</title>
<ellipse fill="none" stroke="#ffff00" stroke-width="4" cx="49.04" cy="-202.18" rx="17.32" ry="17.32"/>
<text text-anchor="middle" x="49.04" y="-197.13" font-family="Times,serif" font-size="14.00" fill="white">5</text>
</g>
<!-- 4&#45;&#45;5 -->
<g id="edge4" class="edge">
<title>4&#45;&#45;5</title>
<path fill="none" stroke="white" d="M24.68,-143.37C29.8,-155.74 36.61,-172.17 41.72,-184.52"/>
</g>
<!-- 6 -->
<g id="node6" class="node">
<title>6</title>
<ellipse fill="none" stroke="#38befc" stroke-width="4" cx="125.61" cy="-233.9" rx="17.32" ry="17.32"/>
<text text-anchor="middle" x="125.61" y="-228.85" font-family="Times,serif" font-size="14.00" fill="white">6</text>
</g>
<!-- 5&#45;&#45;6 -->
<g id="edge5" class="edge">
<title>5&#45;&#45;6</title>
<path fill="none" stroke="white" d="M66.8,-209.54C79.17,-214.66 95.6,-221.47 107.95,-226.58"/>
</g>
<!-- 7 -->
<g id="node7" class="node">
<title>7</title>
<ellipse fill="none" stroke="#38befc" stroke-width="4" cx="202.18" cy="-202.18" rx="17.32" ry="17.32"/>
<text text-anchor="middle" x="202.18" y="-197.13" font-family="Times,serif" font-size="14.00" fill="white">7</text>
</g>
<!-- 6&#45;&#45;7 -->
<g id="edge6" class="edge">
<title>6&#45;&#45;7</title>
<path fill="none" stroke="white" d="M143.37,-226.54C155.74,-221.42 172.17,-214.61 184.52,-209.5"/>
</g>
<!-- 8 -->
<g id="node8" class="node">
<title>8</title>
<ellipse fill="none" stroke="#fc17da" stroke-width="4" cx="233.9" cy="-125.61" rx="17.32" ry="17.32"/>
<text text-anchor="middle" x="233.9" y="-120.56" font-family="Times,serif" font-size="14.00" fill="white">8</text>
</g>
<!-- 7&#45;&#45;8 -->
<g id="edge7" class="edge">
<title>7&#45;&#45;8</title>
<path fill="none" stroke="white" d="M209.54,-184.42C214.66,-172.05 221.47,-155.62 226.58,-143.27"/>
</g>
<!-- 8&#45;&#45;1 -->
<g id="edge8" class="edge">
<title>8&#45;&#45;1</title>
<path fill="none" stroke="white" d="M226.54,-107.85C221.42,-95.48 214.61,-79.05 209.5,-66.7"/>
</g>
</g>
</svg>
