<?xml version="1.0" encoding="UTF-8" standalone="no"?>
<!DOCTYPE svg PUBLIC "-//W3C//DTD SVG 1.1//EN"
 "http://www.w3.org/Graphics/SVG/1.1/DTD/svg11.dtd">
<!-- Generated by graphviz version 12.2.1 (20241206.2353)
 -->
<!-- Title: G Pages: 1 -->
<svg width="542pt" height="307pt"
 viewBox="0.00 0.00 542.29 307.09" xmlns="http://www.w3.org/2000/svg" xmlns:xlink="http://www.w3.org/1999/xlink">
<g id="graph0" class="graph" transform="scale(1 1) rotate(0) translate(4 303.09)">
<title>G</title>
<polygon fill="black" stroke="none" points="-4,4 -4,-303.09 538.29,-303.09 538.29,4 -4,4"/>
<text text-anchor="middle" x="267.15" y="-281.79" font-family="Times,serif" font-size="14.00">Coloring for 4 colors and 14 numbers</text>
<!-- 1 -->
<g id="node1" class="node">
<title>1</title>
<ellipse fill="none" stroke="#fc17da" stroke-width="4" cx="253.62" cy="-137.3" rx="17.32" ry="17.32"/>
<text text-anchor="middle" x="253.62" y="-132.25" font-family="Times,serif" font-size="14.00" fill="white">1</text>
</g>
<!-- 2 -->
<g id="node2" class="node">
<title>2</title>
<ellipse fill="none" stroke="#ffff00" stroke-width="4" cx="225.12" cy="-58.99" rx="17.32" ry="17.32"/>
<text text-anchor="middle" x="225.12" y="-53.94" font-family="Times,serif" font-size="14.00" fill="white">2</text>
</g>
<!-- 1&#45;&#45;2 -->
<g id="edge1" class="edge">
<title>1&#45;&#45;2</title>
<path fill="none" stroke="white" d="M247.16,-119.53C242.52,-106.8 236.31,-89.73 231.66,-76.96"/>
</g>
<!-- 10 -->
<g id="node10" class="node">
<title>10</title>
<ellipse fill="none" stroke="#fc17da" stroke-width="4" cx="324.88" cy="-137.3" rx="20.86" ry="20.86"/>
<text text-anchor="middle" x="324.88" y="-132.25" font-family="Times,serif" font-size="14.00" fill="white">10</text>
</g>
<!-- 1&#45;&#45;10 -->
<g id="edge10" class="edge">
<title>1&#45;&#45;10</title>
<path fill="none" stroke="white" d="M272.72,-137.3C281.79,-137.3 292.7,-137.3 302.19,-137.3"/>
</g>
<!-- 3 -->
<g id="node3" class="node">
<title>3</title>
<ellipse fill="none" stroke="#38befc" stroke-width="4" cx="152.95" cy="-17.32" rx="17.32" ry="17.32"/>
<text text-anchor="middle" x="152.95" y="-12.27" font-family="Times,serif" font-size="14.00" fill="white">3</text>
</g>
<!-- 2&#45;&#45;3 -->
<g id="edge2" class="edge">
<title>2&#45;&#45;3</title>
<path fill="none" stroke="white" d="M208.75,-49.54C197.02,-42.76 181.28,-33.68 169.52,-26.89"/>
</g>
<!-- 4 -->
<g id="node4" class="node">
<title>4</title>
<ellipse fill="none" stroke="#19de12" stroke-width="4" cx="70.89" cy="-31.79" rx="17.32" ry="17.32"/>
<text text-anchor="middle" x="70.89" y="-26.74" font-family="Times,serif" font-size="14.00" fill="white">4</text>
</g>
<!-- 3&#45;&#45;4 -->
<g id="edge3" class="edge">
<title>3&#45;&#45;4</title>
<path fill="none" stroke="white" d="M134.33,-20.61C121,-22.96 103.1,-26.11 89.72,-28.47"/>
</g>
<!-- 5 -->
<g id="node5" class="node">
<title>5</title>
<ellipse fill="none" stroke="#38befc" stroke-width="4" cx="17.32" cy="-95.63" rx="17.32" ry="17.32"/>
<text text-anchor="middle" x="17.32" y="-90.58" font-family="Times,serif" font-size="14.00" fill="white">5</text>
</g>
<!-- 4&#45;&#45;5 -->
<g id="edge4" class="edge">
<title>4&#45;&#45;5</title>
<path fill="none" stroke="white" d="M58.73,-46.28C49.97,-56.73 38.19,-70.77 29.43,-81.2"/>
</g>
<!-- 6 -->
<g id="node6" class="node">
<title>6</title>
<ellipse fill="none" stroke="#19de12" stroke-width="4" cx="17.32" cy="-178.96" rx="17.32" ry="17.32"/>
<text text-anchor="middle" x="17.32" y="-173.91" font-family="Times,serif" font-size="14.00" fill="white">6</text>
</g>
<!-- 5&#45;&#45;6 -->
<g id="edge5" class="edge">
<title>5&#45;&#45;6</title>
<path fill="none" stroke="white" d="M17.32,-114.54C17.32,-128.08 17.32,-146.25 17.32,-159.84"/>
</g>
<!-- 7 -->
<g id="node7" class="node">
<title>7</title>
<ellipse fill="none" stroke="#ffff00" stroke-width="4" cx="70.89" cy="-242.8" rx="17.32" ry="17.32"/>
<text text-anchor="middle" x="70.89" y="-237.75" font-family="Times,serif" font-size="14.00" fill="white">7</text>
</g>
<!-- 6&#45;&#45;7 -->
<g id="edge6" class="edge">
<title>6&#45;&#45;7</title>
<path fill="none" stroke="white" d="M29.48,-193.45C38.24,-203.89 50.03,-217.94 58.78,-228.37"/>
</g>
<!-- 8 -->
<g id="node8" class="node">
<title>8</title>
<ellipse fill="none" stroke="#ffff00" stroke-width="4" cx="152.95" cy="-257.27" rx="17.32" ry="17.32"/>
<text text-anchor="middle" x="152.95" y="-252.22" font-family="Times,serif" font-size="14.00" fill="white">8</text>
</g>
<!-- 7&#45;&#45;8 -->
<g id="edge7" class="edge">
<title>7&#45;&#45;8</title>
<path fill="none" stroke="white" d="M89.51,-246.08C102.85,-248.43 120.74,-251.59 134.12,-253.95"/>
</g>
<!-- 9 -->
<g id="node9" class="node">
<title>9</title>
<ellipse fill="none" stroke="#19de12" stroke-width="4" cx="225.12" cy="-215.6" rx="17.32" ry="17.32"/>
<text text-anchor="middle" x="225.12" y="-210.55" font-family="Times,serif" font-size="14.00" fill="white">9</text>
</g>
<!-- 8&#45;&#45;9 -->
<g id="edge8" class="edge">
<title>8&#45;&#45;9</title>
<path fill="none" stroke="white" d="M169.33,-247.81C181.06,-241.04 196.79,-231.96 208.56,-225.16"/>
</g>
<!-- 9&#45;&#45;1 -->
<g id="edge9" class="edge">
<title>9&#45;&#45;1</title>
<path fill="none" stroke="white" d="M231.59,-197.83C236.22,-185.11 242.43,-168.04 247.08,-155.27"/>
</g>
<!-- 11 -->
<g id="node11" class="node">
<title>11</title>
<ellipse fill="none" stroke="#38befc" stroke-width="4" cx="396.14" cy="-137.3" rx="20.86" ry="20.86"/>
<text text-anchor="middle" x="396.14" y="-132.25" font-family="Times,serif" font-size="14.00" fill="white">11</text>
</g>
<!-- 10&#45;&#45;11 -->
<g id="edge11" class="edge">
<title>10&#45;&#45;11</title>
<path fill="none" stroke="white" d="M347.43,-137.3C355.75,-137.3 365.17,-137.3 373.5,-137.3"/>
</g>
<!-- 12 -->
<g id="node12" class="node">
<title>12</title>
<ellipse fill="none" stroke="#ffff00" stroke-width="4" cx="454.79" cy="-195.94" rx="20.86" ry="20.86"/>
<text text-anchor="middle" x="454.79" y="-190.89" font-family="Times,serif" font-size="14.00" fill="white">12</text>
</g>
<!-- 11&#45;&#45;12 -->
<g id="edge12" class="edge">
<title>11&#45;&#45;12</title>
<path fill="none" stroke="white" d="M412.17,-153.32C420.44,-161.6 430.51,-171.66 438.78,-179.94"/>
</g>
<!-- 13 -->
<g id="node13" class="node">
<title>13</title>
<ellipse fill="none" stroke="#fc17da" stroke-width="4" cx="513.43" cy="-137.3" rx="20.86" ry="20.86"/>
<text text-anchor="middle" x="513.43" y="-132.25" font-family="Times,serif" font-size="14.00" fill="white">13</text>
</g>
<!-- 12&#45;&#45;13 -->
<g id="edge13" class="edge">
<title>12&#45;&#45;13</title>
<path fill="none" stroke="white" d="M470.81,-179.92C479.09,-171.64 489.15,-161.57 497.43,-153.3"/>
</g>
<!-- 14 -->
<g id="node14" class="node">
<title>14</title>
<ellipse fill="none" stroke="#19de12" stroke-width="4" cx="454.79" cy="-78.65" rx="20.86" ry="20.86"/>
<text text-anchor="middle" x="454.79" y="-73.6" font-family="Times,serif" font-size="14.00" fill="white">14</text>
</g>
<!-- 13&#45;&#45;14 -->
<g id="edge14" class="edge">
<title>13&#45;&#45;14</title>
<path fill="none" stroke="white" d="M497.41,-121.27C489.13,-113 479.06,-102.93 470.79,-94.66"/>
</g>
<!-- 14&#45;&#45;11 -->
<g id="edge15" class="edge">
<title>14&#45;&#45;11</title>
<path fill="none" stroke="white" d="M438.76,-94.68C430.49,-102.95 420.42,-113.02 412.15,-121.29"/>
</g>
</g>
</svg>
